<?xml version="1.0" standalone="no"?>
<!DOCTYPE svg PUBLIC "-//W3C//DTD SVG 1.1//EN" "http://www.w3.org/Graphics/SVG/1.1/DTD/svg11.dtd" >
<svg xmlns="http://www.w3.org/2000/svg" xmlns:xlink="http://www.w3.org/1999/xlink" version="1.1">
<metadata>
Created by FontForge 20161003 at Wed Nov  7 11:03:26 2018
 By www-data
</metadata>
<defs>
<font id="icomoon" horiz-adv-x="1024" >
  <font-face 
    font-family="icomoon"
    font-weight="400"
    font-stretch="normal"
    units-per-em="1024"
    panose-1="0 0 0 0 0 0 0 0 0 0"
    ascent="960"
    descent="-64"
    bbox="-0.671642 -64 1744 965.652"
    underline-thickness="0"
    underline-position="0"
    unicode-range="U+0001-FFFD"
  />
<missing-glyph 
 />
    <glyph glyph-name=".notdef" unicode="&#xfffd;" 
 />
    <glyph glyph-name="glyph1" horiz-adv-x="0" 
d="M0 0v0v0v0z" />
    <glyph glyph-name="glyph1" horiz-adv-x="0" 
d="M0 0v0v0v0z" />
    <glyph glyph-name="uni0001" horiz-adv-x="0" 
d="M0 0v0v0v0z" />
    <glyph glyph-name="space" unicode=" " horiz-adv-x="512" 
d="M0 0v0v0v0z" />
    <glyph glyph-name="uniE900" unicode="&#xe900;" 
d="M740 734l1 -8l-11 -2l-1 -16h13l18 2l9 11l-9 4l-6 6l-8 13l-4 19l-15 -3l-4 -7v-7l7 -5z" />
    <glyph glyph-name="uniE901" unicode="&#xe901;" 
d="M727 728l1 10l-9 4l-12 -3l-10 -15v-10h11z" />
    <glyph glyph-name="uniE902" unicode="&#xe902;" 
d="M1016 457q0 11 -0.5 22t-1.5 22q-4 37 -12.5 71.5t-21.5 67.5q-1 2 -2 4.5t-2 4.5q-17 41 -41 78t-54 70l-4 4l-4 4l-11.5 11.5l-11.5 11.5q-34 30 -73 55t-82.5 42t-90.5 26t-96 9q-50 0 -97 -9q-47 -10 -90.5 -27t-83.5 -42q-39 -25 -73 -57q-16 -14 -30.5 -30
t-27.5 -33q-25 -32 -45 -68q-19 -36 -33 -75.5t-21 -80.5q-7 -42 -7 -86q0 -105 40 -198q40 -92 109 -161t162 -109q92 -40 197 -40q74 0 142 20t126.5 56.5t105.5 87.5t78 113q14 26 24.5 54.5t17.5 57.5q2 7 3.5 15t2.5 15q4 22 6 44t2 45v2.5v2.5v0zM920 660l3 4l6 -12
t5 -11h-5l-9 -1v20v0zM847 749v23q6 -7 12 -13.5t11 -13.5l-9 -13h-32l-2 7l20 10v0zM234 805v1h10l1 4h17v-8l-5 -6h-23v9v0zM250 783l5.5 0.5l5.5 0.5q1 0 0.5 -5l-0.5 -5l-23 -1l-4 5zM953 581h-37l-23 17l-24 -3v-14h-7l-9 6l-41 10v27l-52 -4l-16 -9h-21l-10 1l-26 -14
v-26l-51 -37l4 -16h11l-3 -15l-8 -3v-40l45 -50h19l1 3h35l10 9h20l11 -11l29 -3l-4 -39l33 -58l-17 -33l1 -15l14 -14v-37l17 -24v-31h16q-32 -39 -72 -71t-86.5 -54.5t-97.5 -34.5t-106 -12q-96 0 -181 36q-85 37 -148.5 100.5t-100.5 148.5q-36 85 -36 181q0 48 9.5 94
t27.5 88v15l17 20q4 8 8.5 16t9.5 16l1 -8l-19 -24q-5 -8 -9 -17l-8 -18v-26l19 -9v-37l19 -32l15 -2l2 11l-18 27l-3 27h10l5 -28l25 -37l-6 -12l16 -26l41 -10v7l16 -2l-1 -12l12 -2l20 -6l28 -32l36 -2l3 -29l-24 -17l-1 -26l-4 -16l35 -44l3 -15l6.5 -2t7.5 -2
q2 0 15.5 -10l13.5 -10v-80l10 -3l-7 -37l16 -22l-3 -36l22 -38l28 -24h27l3 8l-20 18l1 8l3 11l1 10l-14 1l-7 8l12 11l1 9l-12 3v8l19 3l27 13l10 17l29 38l-7 29l9 15l27 -1l18 15l6 56l20 25l3 16l-18 6l-12 20h-41l-33 13l-1 23l-11 19h-30l-17 27l-15 7l-1 -8l-27 -1
l-10 14l-29 5l-24 -27l-37 6l-2 42l-28 5l11 21l-3 11l-35 -23l-23 2l-8 18l5 18l12 23l29 14h55v-17l19 -9l-1 29l14 14l29 19l2 13l29 30l30 17l-3 2l21 20l8 -2l3 -5l8 9l2 1l-9 1l-9 3v8l5 4h10l5 -2l4 -8l5 1v0h1l15 2l2 7l8 -2v-7l-8 -6v0l1 -8l26 -8v0v0h6l1 11
l-21 10l-1 5l17 6l1 16l-18 11l-1 28l-25 -12h-9l3 21l-33 7l-14 -10v-32l-25 -8l-10 -20l-11 -2v27l-23 3l-11 7l-5 17l42 25l20 6l2 -14l11 1l1 7l12 1v3l-5 2l-1 7l14 1l9 10h1v0l3 3l30 4l14 -12l-36 -19l45 -10l6 15h20l7 13l-14 4v16l-44 20l-30 -4l-17 -9l1 -22
l-18 3l-2 12l17 16l-31 1l-9 -2l-4 -11l11 -2l-2 -11l-20 -2l-3 -7l-28 -1l-0.5 8t-1.5 8t10.5 0h11.5l17 17l-9 5l-12 -12l-21 1l-12 17h-27l-27 -21h25l2 -7l-6 -6l28 -1l4 -10l-32 1l-1 8l-20 4l-10 6h-24q58 42 127.5 65.5t146.5 23.5q44 0 86 -8t81 -23t75 -37
q35 -21 66 -48l-6 -10l-21 -9l-9 -9l2 -12l11 -1l7 -17l19 8l3 -23h-6l-16 2l-17 -2l-17 -24l-24 -4l-3 -21l10 -2l-3 -13l-24 4l-22 -4l-5 -13l4 -25l13 -6h22l14 1l5 12l22 29l15 -3l15 14l3 -11l36 -24l-4 -6l-16 1l6 -9l10 -3l12 5v15l5 2l-4 5l-25 13l-6 18h20l7 -6
l17 -15l1 -18l18 -19l6 26l13 7l2 -22l12 -13h25q3 -9 6.5 -18t5.5 -19l-2 -2v0zM277 729l12 6l11 -3l-3 -14l-12 -4zM342 694v-9h-28l-10 3l2 6l14 6h18v-6h4v0zM355 681v-9l-7 -5l-9 -1v15h16v0zM347 685v11l9 -9zM351 662v-9l-6 -6h-15l2 10h7l2 4l10 1v0zM314 681h16
l-20 -28l-8 5l2 11zM377 666v-10h-14l-4 6v9h1l17 -5v0zM364 678l4 4l7 -4l-6 -5zM960 557l2 2q0 -2 0.5 -4t1.5 -4l-4 6v0z" />
    <glyph glyph-name="uniE903" unicode="&#xe903;" 
d="M79 649v-15l10 18t10 17z" />
    <glyph glyph-name="uniE904" unicode="&#xe904;" 
d="M338 448l455 455l-57 57l-512 -512l512 -512l57 57z" />
    <glyph glyph-name="uniE905" unicode="&#xe905;" 
d="M679 448l-455 455l57 57l512 -512l-512 -512l-57 57z" />
    <glyph glyph-name="uniE906" unicode="&#xe906;" horiz-adv-x="926" 
d="M67 0l58 640h131v-73q-14 -8 -23 -22.5t-9 -32.5q0 -26 18.5 -45t45.5 -19q26 0 45 19t19 45q0 18 -9 32.5t-23 22.5v73h256v-73q-14 -8 -23 -22.5t-9 -32.5q0 -26 18.5 -45t45.5 -19q26 0 45 19t19 45q0 18 -9 32.5t-23 22.5v73h131l58 -640h-762v0zM320 768
q0 53 37.5 90.5t90.5 37.5t90.5 -37.5t37.5 -90.5v-64h-256v64zM832 675q-1 12 -10.5 20.5t-21.5 8.5h-160v64q0 79 -56.5 135.5t-135.5 56.5t-135.5 -56.5t-56.5 -135.5v-64h-160q-13 0 -22 -8.5t-10 -20.5l-64 -704q0 -7 2 -13t6 -12q5 -4 11 -7t13 -3h832q7 0 13 3t11 7
q4 6 6 12t2 13l-64 704v0z" />
    <glyph glyph-name="uniE907" unicode="&#xe907;" 
d="M512 -21q97 0 183 37q85 36 149 100t100 149q37 86 37 183t-37 183q-36 85 -100 149t-149 100q-86 37 -183 37t-183 -37q-85 -36 -149 -100t-100 -149q-37 -86 -37 -183t37 -183q36 -85 100 -149t149 -100q86 -37 183 -37zM512 -64q-106 0 -199 40q-94 40 -163.5 109.5
t-109.5 163.5q-40 93 -40 199t40 199q40 94 109.5 163.5t163.5 109.5q93 40 199 40t199 -40q94 -40 163.5 -109.5t109.5 -163.5q40 -93 40 -199t-40 -199q-40 -94 -109.5 -163.5t-163.5 -109.5q-93 -40 -199 -40zM542 448l183 183l-30 30l-183 -183l-183 183l-30 -30
l183 -183l-183 -183l30 -30l183 183l183 -183l30 30z" />
    <glyph glyph-name="uniE908" unicode="&#xe908;" 
d="M568 448l390 390l-56 56l-390 -390l-390 390l-56 -56l390 -390l-390 -390l56 -56l390 390l390 -390l56 56l-390 390v0z" />
    <glyph glyph-name="uniE909" unicode="&#xe909;" 
d="M901 806h-779q-50 0 -86 -36t-36 -86v-440q0 -51 36 -86.5t86 -35.5h779q51 0 86.5 35.5t35.5 86.5v440q0 50 -35.5 86t-86.5 36v0zM956 244q0 -23 -16 -39t-39 -16h-779q-22 0 -38 16t-16 39v295h888v-295zM956 635h-888v49q0 22 16 38.5t38 16.5h779q23 0 39 -16.5
t16 -38.5v-49v0zM152 252h185q5 0 8.5 3.5t3.5 8.5v37q0 5 -3.5 8.5t-8.5 3.5h-185q-5 0 -8.5 -3.5t-3.5 -8.5v-37q0 -5 3.5 -8.5t8.5 -3.5v0zM752 252h55q24 0 41 17t17 41v55q0 24 -17 40.5t-41 16.5h-55q-24 0 -40.5 -16.5t-16.5 -40.5v-55q0 -24 16.5 -41t40.5 -17v0z
" />
    <glyph glyph-name="uniE90A" unicode="&#xe90a;" 
d="M939 637q-27 0 -46.5 -19.5t-19.5 -46.5q0 -11 3.5 -21t9.5 -18l-125 -79l-33 71q-3 8 -11 10.5t-15 -0.5l-83 -38q-2 -1 -4 -2.5t-3 -3.5l-85 128q18 8 30 24.5t12 37.5q0 27 -19.5 46.5t-46.5 19.5q-28 0 -47 -19.5t-19 -46.5q0 -21 11.5 -37.5t30.5 -24.5l-86 -128
q-1 2 -3 3.5t-4 2.5l-82 38q-8 3 -15.5 0.5t-11.5 -10.5l-33 -72l-124 80q5 8 8.5 18t3.5 21q0 27 -19.5 46.5t-46.5 19.5t-46.5 -19.5t-19.5 -46.5q0 -28 19.5 -47t46.5 -19q5 0 10 1l10 2l161 -256q3 -4 7.5 -6.5t9.5 -2.5h478q5 0 9.5 2.5t6.5 6.5l162 256q4 -1 9 -2
t10 -1q28 0 47 19t19 47q0 27 -19 46.5t-47 19.5v0zM636 460l64 30l27 -58l-54 -34l-41 61h2t2 1v0zM503 706q11 0 18.5 -7.5t7.5 -18.5t-7.5 -19t-18.5 -8t-19 8t-8 19t8 18.5t19 7.5zM305 490l65 -30q0 -1 1 -1h2l-43 -64l-53 35l28 60v0zM40 571q0 11 7.5 18.5t18.5 7.5
t18.5 -7.5t7.5 -18.5t-7.5 -19t-18.5 -8t-18.5 8t-7.5 19zM731 282h-456l-109 173l159 -104q7 -4 15 -2.5t13 8.5l150 226l148 -224q5 -6 12.5 -8t14.5 3l162 103l-109 -175v0zM939 544q-11 0 -18.5 8t-7.5 19q0 10 7.5 18t18.5 8t19 -8t8 -18q0 -11 -8 -19t-19 -8zM763 181
q0 -9 -6 -14.5t-14 -5.5h-481q-8 0 -14 5.5t-6 14.5q0 8 6 13.5t14 5.5h481q8 0 14 -5.5t6 -13.5z" />
    <glyph glyph-name="uniE90B" unicode="&#xe90b;" 
d="M314 -64q-51 107 -35 175t56 125q43 63 57.5 115l14.5 52l20.5 -41t6.5 -109q30 33 48 74q19 41 28 81t10 74q1 35 -3 55q68 -47 115 -119q47 -71 68.5 -153t15.5 -167q-7 -86 -46 -162q208 117 254 255q46 137 13 259t-103 210q-71 89 -98 109q18 -40 17 -96.5
t-37 -88.5q-31 117 -80 190q-48 74 -94 115t-79 56l-33 15q9 -60 -5 -123q-15 -62 -43.5 -122.5t-67.5 -117.5q-39 -56 -79 -106q-3 48 -9.5 86t-32.5 84q-2 -43 -18 -84q-16 -40 -36 -80t-38 -80q-19 -41 -28 -84q-13 -60 -7 -112t34 -100t80 -94q53 -45 134 -91v0z" />
    <glyph glyph-name="uniE90C" unicode="&#xe90c;" 
d="M946 742q0 30 -17 49t-48 23q-5 1 -11 1.5t-12 1.5q-17 2 -33 4t-32 5q-60 14 -120 41.5t-125 73.5q-11 7 -23 13t-26 6q-13 0 -25 -6t-23 -13q-43 -30 -85 -52q-41 -23 -81.5 -38.5t-80.5 -24.5t-80 -12q-35 -2 -53 -21.5t-18 -54.5v-85q-1 -58 -0.5 -118t0.5 -120
q0 -22 3 -45t8 -47q13 -54 41.5 -103.5t74.5 -96.5q29 -29 61 -55q32 -25 68.5 -48t77.5 -42q41 -20 86 -37q6 -2 12.5 -3.5t13.5 -1.5q8 0 16 2t16 5l10 4l10 4v1q22 9 44.5 19t44.5 21q73 39 129.5 85.5t96.5 101.5q37 50 56 100.5t22 104.5q0 10 0.5 21t0.5 23l1 132v53
v64.5v64.5v0zM895 562v-1l-1 -132q0 -12 -0.5 -22.5t-0.5 -20.5q-2 -45 -19 -89t-49 -87q-37 -51 -89 -93.5t-120 -78.5q-21 -11 -42.5 -20.5t-42.5 -18.5l-1 -1l-10 -4l-10 -4q-3 -1 -5.5 -2t-5.5 -1t-5 0.5t-4 1.5q-42 16 -80 34q-38 19 -72.5 40t-64.5 45t-57 51
q-41 41 -66 84.5t-36 91.5q-5 20 -7.5 40.5t-2.5 39.5v120v118v85q0 7 1 12.5t3 7.5t7 3.5t12 1.5q44 3 87 13q44 9 87.5 26t87.5 41q45 24 91 56q7 5 12 7.5t7 2.5q3 0 8 -2.5t12 -7.5q69 -48 133.5 -78t129.5 -45q18 -3 35 -5.5t35 -4.5q6 -1 11.5 -1.5t11.5 -1.5
q11 -1 15.5 -6t4.5 -15v-129v-51v0zM699 504q-1 3 -3.5 4.5t-5.5 2.5l-117 16l-52 106q-2 3 -4.5 4.5t-5.5 1.5v0q-3 0 -5.5 -1.5t-3.5 -4.5l-52 -106l-117 -17q-3 -1 -5.5 -3t-3.5 -4q-1 -3 0 -6t3 -5l85 -82l-20 -117q0 -3 1 -6t4 -4q1 -1 2.5 -1.5t3.5 -0.5h2t3 1l104 55
l105 -54q1 -1 2.5 -1.5t2.5 -0.5v0q4 0 7 3.5t3 7.5v1v1l-20 116l84 83q2 2 3 5t0 6v0z" />
    <glyph glyph-name="uniE90D" unicode="&#xe90d;" 
d="M691 864q-67 0 -122.5 -51.5t-56.5 -51.5t-56.5 51.5t-122.5 51.5t-118 -21q-50 -21 -83.5 -57.5t-50.5 -85.5t-17 -105q0 -101 70 -197q70 -97 154 -172.5t154 -121.5l70 -46l70 46t154 121.5t154 172.5q70 96 70 197q0 56 -17 105t-50.5 85.5t-83.5 57.5
q-51 21 -118 21zM691 928q77 0 139 -25q61 -24 104.5 -68.5t66.5 -105.5t23 -134q0 -53 -17 -105q-17 -53 -48.5 -105t-77.5 -104q-45 -51 -102 -103q-39 -34 -79 -66t-81 -61q-15 -10 -28 -18.5t-25 -16.5q-7 -5 -12.5 -8t-8.5 -5l-33 -20l-33 20q-3 2 -8.5 5t-12.5 8
q-12 8 -25 16.5t-28 18.5q-41 29 -81 61t-79 66q-57 52 -102 103q-46 52 -77.5 104t-48.5 105q-17 52 -17 105q0 73 23 134t66.5 105.5t104.5 68.5q62 25 139 25q50 0 97 -23.5t82 -62.5q35 39 82 62.5t97 23.5z" />
    <glyph glyph-name="uniE90E" unicode="&#xe90e;" 
d="M717 928q-39 0 -75 -18q-37 -17 -66 -46t-46 -66q-18 -36 -18 -75q0 39 -18 75q-17 37 -46 66t-66 46q-36 18 -75 18q-77 0 -134 -24q-58 -24 -96.5 -66t-57.5 -98t-19 -119q0 -115 80 -226q80 -110 176 -196.5t176 -139.5l80 -52l80 52q80 53 176 139.5t176 196.5
q80 111 80 226q0 63 -19 119t-57.5 98t-96.5 66q-57 24 -134 24z" />
    <glyph glyph-name="uniE90F" unicode="&#xe90f;" 
d="M512 -21q97 0 183 37q85 36 149 100t100 149q37 86 37 183t-37 183q-36 85 -100 149t-149 100q-86 37 -183 37t-183 -37q-85 -36 -149 -100t-100 -149q-37 -86 -37 -183t37 -183q36 -85 100 -149t149 -100q86 -37 183 -37zM512 -64q-106 0 -199 40q-94 40 -163.5 109.5
t-109.5 163.5q-40 93 -40 199t40 199q40 94 109.5 163.5t163.5 109.5q93 40 199 40t199 -40q94 -40 163.5 -109.5t109.5 -163.5q40 -93 40 -199t-40 -199q-40 -94 -109.5 -163.5t-163.5 -109.5q-93 -40 -199 -40zM540 277h-56v57h56v-57zM599 498l-25 -26q-16 -16 -25 -32.5
t-9 -48.5h-56v14q0 24 8.5 44.5t24.5 36.5l35 36q8 7 12.5 17.5t4.5 22.5q0 23 -17 40t-40 17t-40 -17t-17 -40h-57q0 47 33.5 80.5t80.5 33.5t80.5 -33.5t33.5 -80.5q0 -19 -7.5 -35.5t-19.5 -28.5v0v0z" />
    <glyph glyph-name="uniE910" unicode="&#xe910;" 
d="M0 482h1024v-68h-1024v68z" />
    <glyph glyph-name="uniE911" unicode="&#xe911;" horiz-adv-x="939" 
d="M506 510q3 -3 7.5 -5t9.5 -2t9.5 2t7.5 5l152 152q7 7 7 17.5t-7 17.5t-17 7t-18 -7l-134 -135l-54 54q-7 8 -17.5 8t-17.5 -8q-7 -7 -7 -17t7 -17l72 -72v0zM262 306h553q45 0 77.5 32.5t32.5 78.5v232q0 11 -7 18t-18 7q-10 0 -17 -7t-7 -18v-232q0 -25 -18 -43
t-43 -18h-553q-25 0 -43 18t-18 43v454v1.5v1.5v0v1.5v0.5l-0.5 0.5t-0.5 1.5v0v0v1.5v0.5h-0.5t-0.5 1v0.5v0.5l-0.5 0.5l-0.5 0.5v0.5v0.5l-0.5 0.5l-0.5 0.5v0.5t-1 0.5v0.5v0.5h-1v1l-0.5 0.5l-0.5 0.5v0h-1q0 1 -0.5 1h-0.5v0.5v0.5q-1 0 -1 0.5t-1 0.5h-0.5t-0.5 1
h-0.5h-0.5l-0.5 0.5t-1.5 0.5l-152 64q-9 4 -18.5 0t-13.5 -13t0 -18.5t13 -13.5l137 -58v-611q0 -44 29 -75.5t72 -34.5q-9 -13 -13.5 -28.5t-4.5 -32.5q0 -45 32 -77t77 -32t77 32t32 77q0 17 -4.5 32t-13.5 28h262q-9 -13 -13.5 -28t-4.5 -32q0 -45 32 -77t77 -32t77 32
t32 77t-32 77.5t-77 32.5h-526q-25 0 -43 18t-18 43v81q13 -9 28.5 -14t32.5 -5v0zM404 73q0 -24 -17.5 -42t-42.5 -18t-42.5 18t-17.5 42q0 25 17.5 42.5t42.5 17.5t42.5 -17.5t17.5 -42.5zM848 73q0 -24 -17.5 -42t-42.5 -18t-42.5 18t-17.5 42q0 25 17.5 42.5t42.5 17.5
t42.5 -17.5t17.5 -42.5z" />
    <glyph glyph-name="uniE912" unicode="&#xe912;" 
d="M555 238h-485q-8 0 -14 6t-6 14v382h856v-50q0 -10 7 -17.5t18 -7.5q10 0 17.5 7.5t7.5 17.5v181q0 29 -20.5 50t-49.5 21h-816q-29 0 -49.5 -21t-20.5 -50v-513q0 -29 20.5 -49.5t49.5 -20.5h486q10 0 17.5 7t7.5 18q0 10 -7.5 17.5t-18.5 7.5v0zM70 791h816
q8 0 14 -5.5t6 -14.5v-80h-856v80q0 9 6 14.5t14 5.5v0zM503 454q0 10 -7.5 17.5t-17.5 7.5h-302q-10 0 -17.5 -7.5t-7.5 -17.5q0 -11 7.5 -18t17.5 -7h302q10 0 17.5 7t7.5 18zM176 389q-10 0 -17.5 -7.5t-7.5 -17.5q0 -11 7.5 -18t17.5 -7h121q10 0 17.5 7t7.5 18
q0 10 -7.5 17.5t-17.5 7.5h-121v0zM173 520h302q10 0 17.5 7.5t7.5 17.5t-7.5 17.5t-17.5 7.5h-302q-10 0 -17.5 -7.5t-7.5 -17.5t7 -17.5t18 -7.5v0zM997 347h-36v58q0 55 -39 93.5t-93 38.5q-55 0 -93.5 -38.5t-38.5 -93.5v-58h-37q-11 0 -18 -7.5t-7 -17.5v-218
q0 -10 7 -17.5t18 -7.5h337q11 0 18 7.5t7 17.5v218q0 10 -7 17.5t-18 7.5v0zM747 406q0 33 24 57t58 24q33 0 57 -24t24 -57v-59h-163v59v0zM972 129h-287v168h287v-168v0z" />
    <glyph glyph-name="uniE913" unicode="&#xe913;" 
d="M434 372q38 -38 78 -73q39 -35 75 -58t65 -30q30 -7 47 10q49 50 96 72.5t157 -64.5q110 -88 64.5 -150t-93.5 -110q-28 -28 -90 -28q-63 0 -147.5 31.5t-184.5 96.5t-202 166q-103 102 -169 202q-65 99 -97.5 183.5t-32.5 146.5q0 63 27 91q48 48 110 94t150 -63
t66 -156.5t-72 -96.5q-17 -18 -10 -47q8 -29 31.5 -65t58.5 -75q35 -40 73 -77v0z" />
    <glyph glyph-name="uniE914" unicode="&#xe914;" 
d="M546 482v478h-68v-478h-478v-68h478v-478h68v478h478v68h-478z" />
    <glyph glyph-name="uniE915" unicode="&#xe915;" 
d="M845 834q35 -30 63 -65q28 -36 49.5 -75.5t35.5 -82.5t21 -88l-60 -8q-5 39 -18 77t-31.5 72.5t-43.5 66.5q-25 31 -55 57q-31 27 -65 48q-35 20 -72.5 34.5t-76.5 21.5q-40 7 -80 7q-63 0 -121 -17q-59 -17 -110.5 -48t-93.5 -75q-42 -45 -71 -100l56 -17l-132 -123
l-40 177l58 -18q32 64 80 116t107 89t127 57t140 20q46 0 91 -9q45 -8 87 -24t81 -39q40 -24 74 -54v0zM1024 203l-58 18q-32 -65 -80 -117t-107 -88.5t-127 -56.5t-140 -20q-46 0 -91 8t-87.5 24t-81.5 40q-39 23 -74 53q-34 30 -62 66q-28 35 -49.5 74.5t-35.5 82.5
q-15 43 -21 88l59 9q6 -40 19 -78q12 -37 31 -72t44 -66t55 -58q31 -27 65 -47q35 -21 72 -35t77 -21q39 -8 80 -8q62 0 121 17t110 48t93 76q42 44 71 99l-55 18l132 122l40 -176v0z" />
    <glyph glyph-name="uniE916" unicode="&#xe916;" 
d="M968 645q-25 27 -60.5 42t-75.5 15h-141v79q0 10 -7.5 17.5t-17.5 7.5h-640q-11 0 -18.5 -7.5t-7.5 -17.5v-567q0 -10 7.5 -17.5t18.5 -7.5h102q7 -36 35 -60t65 -24q38 0 66 24t34 60h394q6 -36 34 -60t66 -24q37 0 65 24t34 60h77q11 0 18.5 7.5t7.5 17.5v267
q0 51 -14 92.5t-42 71.5v0zM51 755h589v-515h-317q-10 29 -36 48t-59 19t-59 -19t-36 -48h-82v515v0zM228 156q-21 0 -35.5 15t-14.5 35q0 21 14.5 35.5t35.5 14.5t35.5 -14.5t14.5 -35.5q0 -20 -14.5 -35t-35.5 -15zM822 156q-21 0 -35.5 15t-14.5 35q0 21 14.5 35.5
t35.5 14.5q20 0 34.5 -14.5t14.5 -35.5q0 -20 -14.5 -35t-34.5 -15zM972 240h-55q-11 30 -36.5 48.5t-58.5 18.5t-59 -18.5t-37 -48.5h-35v410h141q65 0 103 -45.5t38 -123.5v-241h-1z" />
    <glyph glyph-name="uniE917" unicode="&#xe917;" 
d="M1002 282q-41 29 -87 50t-88.5 35.5t-77.5 22.5q-35 9 -55 13l-25 214q-1 35 -27 60.5t-62 25.5q-35 0 -60.5 -24t-27.5 -60v-0.5v-1.5v-127l-2 -307l-32 25q-30 26 -91 41t-118 -46q-6 -7 -6.5 -16t4.5 -16q2 -2 37.5 -47.5t96.5 -102.5q7 -8 17.5 -7.5t18.5 8.5
q7 7 6.5 18t-7.5 18q-40 38 -69.5 71.5t-43.5 52.5q41 31 78.5 11.5t42.5 -24.5q1 0 1 -0.5t1 -0.5l74 -57q5 -5 12.5 -5.5t13.5 2.5q7 3 11 9.5t4 13.5l2 359v126q1 15 11.5 25.5t25.5 10.5q16 0 26.5 -11t10.5 -26v-1.5t1 -1.5l28 -234q0 -8 6 -14t15 -8l30 -6
q29 -6 73 -19t96 -34t98 -51q4 -22 7 -80.5t-12 -119.5q-3 -11 2.5 -20t15.5 -12h3.5h2.5q9 0 16 5t9 14q21 83 13.5 156.5t-8.5 76.5q-1 5 -4 9.5t-7 6.5v0zM218 895q-45 0 -85 -17t-69.5 -47t-46.5 -69q-17 -40 -17 -85t17 -85q17 -39 46.5 -68.5t69.5 -46.5
q40 -18 85 -18q40 0 77 14q36 14 64.5 38.5t48.5 58.5q19 34 25 74q1 8 2 16.5t1 16.5q0 11 -8 18.5t-18 7.5q-11 0 -18.5 -7.5t-7.5 -18.5q0 -6 -0.5 -12.5t-1.5 -13.5q-9 -60 -56 -100t-108 -40q-69 0 -118 48.5t-49 117.5t49 118t118 49q37 0 70.5 -16t56.5 -44
l-122 -121l-69 69q-8 8 -18.5 8t-17.5 -8q-8 -7 -8 -17.5t7 -18.5l87 -87q4 -4 8.5 -6t10.5 -2v0q5 0 9.5 2t8.5 6l264 263q8 8 8 18.5t-7 17.5q-8 8 -18.5 8t-18.5 -8l-88 -87q-30 35 -73 54.5t-90 19.5v0z" />
    <glyph glyph-name="uniE918" unicode="&#xe918;" 
d="M512 960q106 0 199 -40q94 -40 163.5 -109.5t109.5 -163.5q40 -93 40 -199t-40 -199q-40 -94 -109.5 -163.5t-163.5 -109.5q-93 -40 -199 -40t-199 40q-94 40 -163.5 109.5t-109.5 163.5q-40 93 -40 199t40 199q40 94 109.5 163.5t163.5 109.5q93 40 199 40zM387 407h112
l-112 -292l250 376h-110l110 291l-250 -375v0z" />
    <glyph glyph-name="uniE919" unicode="&#xe919;" 
d="M512 -64q-106 0 -199 40q-94 40 -163.5 109.5t-109.5 163.5q-40 93 -40 199t40 199q40 94 109.5 163.5t163.5 109.5q93 40 199 40t199 -40q94 -40 163.5 -109.5t109.5 -163.5q40 -93 40 -199t-40 -199q-40 -94 -109.5 -163.5t-163.5 -109.5q-93 -40 -199 -40zM512 693
l-55 -170h-179l145 -105l-56 -170l145 105l145 -105l-56 170l145 105h-179l-55 170v0z" />
    <glyph glyph-name="uniE91A" unicode="&#xe91a;" 
d="M608 30q16 4 30.5 -4.5t18.5 -25.5q4 -16 -4.5 -30.5t-24.5 -18.5q-8 -2 -15.5 -4t-15.5 -3q-8 -2 -16 0t-14 7q-7 4 -11 11t-6 15q-3 17 6.5 31t26.5 17q6 1 12.5 2.5t12.5 2.5v0zM909 581q-2 6 -4.5 12t-4.5 12q-7 16 0 32t22 22q16 6 31.5 -0.5t21.5 -22.5
q3 -7 5.5 -14.5t5.5 -14.5q5 -16 -2.5 -31.5t-23.5 -20.5q-10 -3 -19.5 -1.5t-16.5 6.5q-5 4 -9 9t-6 12v0zM740 89q14 9 30.5 5.5t25.5 -17.5q10 -14 6.5 -30.5t-17.5 -26.5q-7 -4 -13.5 -8t-12.5 -8q-11 -6 -23 -5.5t-21 7.5q-4 3 -7 6t-5 7q-8 15 -4 31.5t19 24.5
q6 3 11.5 6.5t10.5 7.5v0zM1011 466v-15.5v-15.5q0 -17 -12 -29t-29 -11q-6 0 -12 2t-11 5q-8 6 -12.5 15t-4.5 20v12.5v13.5q-1 17 10.5 29.5t28.5 13.5q17 0 29 -11.5t13 -28.5v0zM902 197q13 -10 15.5 -27t-7.5 -31q-5 -6 -9.5 -12t-9.5 -12q-11 -12 -26.5 -14t-28.5 7
q0 1 -1 1.5t-2 0.5q-12 11 -13.5 28t9.5 30q4 5 8 10.5t8 10.5q10 13 26.5 15.5t30.5 -7.5v0zM962 345q16 -5 23.5 -20t2.5 -31q-2 -7 -4.5 -14.5t-5.5 -14.5q-6 -16 -21 -23t-31 -1q-3 1 -5 2t-4 3q-11 8 -15.5 21t0.5 27q3 6 5 12t4 13q5 16 20 24t31 2v0zM430 24
q-27 5 -53 13.5t-51 20.5h-0.5h-0.5q-6 3 -11.5 6t-11.5 6v0v0q-11 6 -21 12.5t-20 13.5q-71 51 -115 123q-44 73 -58 154t3 165q17 83 68 155q22 32 48 58t56 47q1 0 1 0.5t1 0.5q52 36 112 56q60 19 122.5 20t124.5 -17q61 -18 117 -55l-32 -46q-6 -10 -2.5 -16t14.5 -5
l138 12q12 1 18 10t3 20l-37 135q-3 11 -10 12.5t-14 -8.5l-32 -46q-40 27 -85 46q-44 19 -91 29t-95 11t-97 -7q-9 -2 -19 -4t-19 -5v0v0h-1.5h-0.5q-42 -11 -81 -29q-38 -17 -73.5 -41t-66.5 -54q-31 -29 -57 -64q0 -1 -0.5 -1.5l-1.5 -1.5q-1 -2 -3 -4.5t-3 -4.5l-6 -8
t-5 -8q-1 -1 -1 -1.5v-0.5q-43 -67 -63.5 -143.5t-16.5 -155.5v-0.5v-0.5q0 -8 0.5 -15.5t1.5 -15.5v-0.5v-1.5q1 -8 2 -15.5t3 -15.5q13 -79 49.5 -149t91.5 -126v0h1v-0.5v-0.5q15 -14 31 -28t34 -26q45 -33 96 -54.5t105 -30.5q17 -3 30.5 6.5t16.5 26.5q3 16 -6.5 30
t-26.5 17v0zM481 778q-14 0 -23.5 -9.5t-9.5 -23.5v-331l300 -157q3 -2 7 -2.5t8 -0.5q9 0 17 4.5t12 13.5q6 12 2 25t-16 19l-264 138v291q0 14 -10 23.5t-23 9.5v0z" />
    <glyph glyph-name="uniE91B" unicode="&#xe91b;" horiz-adv-x="832" 
d="M147 730q-5 0 -9.5 2.5t-7.5 6.5q-5 8 -3.5 16.5t8.5 12.5q13 9 12 19.5t-17 37.5q-13 22 -23 53.5t28 57.5q8 4 16.5 2.5t12.5 -8.5q5 -7 3.5 -15.5t-8.5 -13.5q-11 -8 -11 -17t17 -37q13 -22 23 -54.5t-29 -58.5q-3 -2 -6 -3t-6 -1v0zM313 730q-5 0 -9.5 2.5t-7.5 6.5
q-5 8 -3.5 16.5t9.5 12.5q12 9 11 19.5t-17 37.5q-13 22 -23 53.5t29 57.5q7 4 15.5 2.5t13.5 -8.5q4 -7 2.5 -15.5t-8.5 -13.5q-11 -8 -10.5 -17t17.5 -37q13 -22 23 -54.5t-30 -58.5q-3 -2 -6 -3t-6 -1v0zM480 730q-5 0 -9.5 2.5t-7.5 6.5q-5 8 -3 16.5t9 12.5
q13 9 11.5 19.5t-17.5 37.5q-13 22 -23 53.5t29 57.5q7 4 15.5 2.5t13.5 -8.5t3 -15.5t-9 -13.5q-11 -8 -10.5 -17t17.5 -37q13 -22 23 -54.5t-30 -58.5q-3 -2 -6 -3t-6 -1v0zM690 229h-84q-9 0 -15 6t-6 14q0 9 6 15t15 6h84q26 0 44 18.5t18 44.5v167q0 26 -18 44.5
t-44 18.5h-84q-9 0 -15 6t-6 15q0 8 6 14.5t15 6.5h84q43 0 73.5 -31t30.5 -74v-167q0 -43 -30.5 -73.5t-73.5 -30.5zM606 688h-397v-209h30l54 -54v-155h-209v155l54 54h29v209h-146q-9 0 -15 -6t-6 -15v-585q0 -60 43 -103t103 -43h335q60 0 103 43t43 103v585q0 9 -6 15
t-15 6v0z" />
    <glyph glyph-name="uniE91C" unicode="&#xe91c;" horiz-adv-x="1138" 
d="M1081 391h-1024q-24 0 -40.5 16.5t-16.5 40.5t16.5 40.5t40.5 16.5h1024q23 0 40 -16.5t17 -40.5t-17 -40.5t-40 -16.5v0zM1081 846h-1024q-24 0 -40.5 17t-16.5 40q0 24 16.5 40.5t40.5 16.5h1024q23 0 40 -16.5t17 -40.5q0 -23 -17 -40t-40 -17v0zM57 50h1024
q23 0 40 -17t17 -40q0 -24 -17 -40.5t-40 -16.5h-1024q-24 0 -40.5 16.5t-16.5 40.5q0 23 16.5 40t40.5 17v0v0z" />
    <glyph glyph-name="uniE91D" unicode="&#xe91d;" horiz-adv-x="717" 
d="M614 499v205q0 53 -20 100q-20 46 -54.5 81t-81.5 55t-100 20t-99 -20q-47 -20 -81.5 -55t-54.5 -81q-21 -47 -21 -100v-205q-42 0 -72 -30t-30 -72v-359q0 -42 30 -72t72 -30h512q43 0 73 30t30 72v359q0 42 -30 72t-73 30v0zM358 141q-31 0 -53.5 22.5t-22.5 54.5
q0 31 22.5 53.5t53.5 22.5q32 0 54.5 -22.5t22.5 -53.5q0 -32 -22.5 -54.5t-54.5 -22.5zM512 499h-307v205q0 64 45 109t108 45q64 0 109 -45t45 -109v-205z" />
    <glyph glyph-name="uniE91E" unicode="&#xe91e;" horiz-adv-x="1741" 
d="M865 175l728 728l91 -91l-819 -819l-819 819l91 91z" />
    <glyph glyph-name="uniE91F" unicode="&#xe91f;" horiz-adv-x="1741" 
d="M865 721l-728 -728l-91 91l819 819l819 -819l-91 -91z" />
    <glyph glyph-name="uniE920" unicode="&#xe920;" horiz-adv-x="945" 
d="M814 793h-792v99h891v-891h-99v792z" />
    <glyph glyph-name="uniE921" unicode="&#xe921;" horiz-adv-x="926" 
d="M67 0l58 640h131v-73q-14 -8 -23 -22.5t-9 -32.5q0 -26 18.5 -45t45.5 -19q26 0 45 19t19 45q0 18 -9 32.5t-23 22.5v73h256v-73q-14 -8 -23 -22.5t-9 -32.5q0 -26 18.5 -45t45.5 -19q26 0 45 19t19 45q0 18 -9 32.5t-23 22.5v73h131l58 -640h-762v0zM320 768
q0 53 37.5 90.5t90.5 37.5t90.5 -37.5t37.5 -90.5v-64h-256v64zM832 675q-1 12 -10.5 20.5t-21.5 8.5h-160v64q0 79 -56.5 135.5t-135.5 56.5t-135.5 -56.5t-56.5 -135.5v-64h-160q-13 0 -22 -8.5t-10 -20.5l-64 -704q0 -7 2 -13t6 -12q5 -4 11 -7t13 -3h832q7 0 13 3t11 7
q4 6 6 12t2 13l-64 704v0zM310 209q38 75 77 111t77 35q38 0 77 -37t77 -112q4 -8 11.5 -10.5t14.5 1.5q8 4 10.5 11.5t-1.5 14.5q-43 84 -90 127.5t-99 43.5q-52 1 -99 -41.5t-90 -125.5q-3 -7 -1 -15t10 -11q7 -4 14.5 -1.5t11.5 9.5v0z" />
    <glyph glyph-name="uniE922" unicode="&#xe922;" 
d="M845 834q35 -30 63 -65q28 -36 49.5 -75.5t35.5 -82.5t21 -88l-60 -8q-5 39 -18 77t-31.5 72.5t-43.5 66.5q-25 31 -55 57q-31 27 -65 48q-35 20 -72.5 34.5t-76.5 21.5q-40 7 -80 7q-63 0 -121 -17q-59 -17 -110.5 -48t-93.5 -75q-42 -45 -71 -100l56 -17l-132 -123
l-40 177l58 -18q32 64 80 116t107 89t127 57t140 20q46 0 91 -9q45 -8 87 -24t81 -39q40 -24 74 -54v0zM1024 203l-58 18q-32 -65 -80 -117t-107 -88.5t-127 -56.5t-140 -20q-46 0 -91 8t-87.5 24t-81.5 40q-39 23 -74 53q-34 30 -62 66q-28 35 -49.5 74.5t-35.5 82.5
q-15 43 -21 88l59 9q6 -40 19 -78q12 -37 31 -72t44 -66t55 -58q31 -27 65 -47q35 -21 72 -35t77 -21q39 -8 80 -8q62 0 121 17t110 48t93 76q42 44 71 99l-55 18l132 122l40 -176v0zM658 594q-7 8 -17 8t-17 -8l-112 -112l-112 112q-7 8 -17 8t-17 -8q-8 -7 -8 -17t8 -17
l112 -112l-112 -112q-8 -7 -8 -17t8 -17q3 -4 7.5 -6t9.5 -2q4 0 8.5 2t8.5 6l112 112l112 -112q4 -4 8.5 -6t8.5 -2q5 0 9.5 2t7.5 6q8 7 8 17t-8 17l-112 112l112 112q7 7 7 17t-7 17v0z" />
    <glyph glyph-name="uniE923" unicode="&#xe923;" horiz-adv-x="1331" 
d="M457 173l728 728l91 -91l-819 -819l-457 457l91 91z" />
    <glyph glyph-name="uniE924" unicode="&#xe924;" horiz-adv-x="945" 
d="M930 -25v105q0 52 -19 97q-20 45 -53.5 78.5t-78.5 52.5q-45 20 -96 20h-420q-52 0 -97 -20q-45 -19 -78.5 -52.5t-52.5 -78.5q-20 -45 -20 -97v-105q0 -15 11 -26t27 -11q15 0 26 11t11 26v105q0 72 50.5 122.5t122.5 50.5h420q71 0 121.5 -50.5t50.5 -122.5v-105
q0 -15 11 -26t27 -11q15 0 26 11t11 26v0zM473 463q-52 0 -97 20q-45 19 -78.5 52.5t-52.5 78.5q-20 45 -20 97q0 51 20 96q19 45 52.5 78.5t78.5 53.5q45 19 97 19q51 0 96 -19q45 -20 78.5 -53.5t53.5 -78.5q19 -45 19 -96q0 -52 -19 -97q-20 -45 -53.5 -78.5t-78.5 -52.5
q-45 -20 -96 -20zM473 538q71 0 121.5 50.5t50.5 122.5q0 71 -50.5 121.5t-121.5 50.5q-72 0 -122.5 -50.5t-50.5 -121.5q0 -72 50.5 -122.5t122.5 -50.5z" />
    <glyph glyph-name="uniE925" unicode="&#xe925;" 
d="M908 -23q-14 0 -27.5 5.5t-24.5 16.5l-793 793q-17 16 -21 38t5 43q8 22 26.5 34t41.5 12h692q73 0 124.5 -51.5t51.5 -124.5v-692q0 -30 -22 -52t-53 -22v0zM115 880q-11 0 -19.5 -6t-12.5 -16t-2 -20t10 -18l793 -794q6 -6 13 -8t11 -2q13 0 24.5 9.5t11.5 25.5v692
q0 56 -40 96.5t-97 40.5h-692v0zM444 611q-2 0 -4.5 0.5t-4.5 1.5q-5 3 -8 8.5t-1 11.5l25 128l-69 -69q-6 -6 -13.5 -6t-13.5 6q-6 5 -6 13t6 14l114 113q4 5 10.5 6t11.5 -2q6 -3 8.5 -9t1.5 -12l-26 -128l70 70q5 5 13 5t13 -5q6 -6 6 -14t-6 -13l-113 -114
q-3 -3 -6.5 -4t-7.5 -1v0zM556 497q-3 0 -6.5 1.5t-6.5 3.5l-58 58q-6 6 -6 14t6 13l115 115q6 6 14 6t14 -6l57 -57q6 -6 6 -14t-6 -13q-5 -6 -13 -6t-14 6l-44 44l-88 -88l44 -44q6 -6 6 -14t-6 -14q-3 -2 -6.5 -3.5t-7.5 -1.5v0zM622 562q-4 0 -8 1.5t-7 4.5l-40 40
q-6 6 -6 14.5t6 14.5t14 6t14 -6l41 -41q6 -6 6 -14t-6 -14q-3 -3 -6.5 -4.5t-7.5 -1.5v0zM724 334q-3 0 -6.5 1.5t-6.5 3.5q-4 4 -5.5 10t0.5 11l27 81l-81 -27q-6 -2 -11.5 -0.5t-9.5 6.5q-4 4 -5 10t2 12l79 158q3 7 11 9.5t15 -1.5q8 -3 10.5 -11t-1.5 -15l-58 -115
l74 24q5 2 10.5 0.5t9.5 -5.5t5 -9.5t0 -10.5l-25 -73l115 58q8 3 15.5 0.5t11.5 -9.5q4 -8 1 -15.5t-10 -11.5l-158 -79q-2 -1 -4 -1.5t-5 -0.5v0z" />
    <glyph glyph-name="uniE926" unicode="&#xe926;" 
d="M512 919q98 0 183 -37q86 -37 150 -101t101 -150q37 -85 37 -183t-37 -183q-37 -86 -101 -150t-150 -101q-85 -37 -183 -37t-183 37q-86 37 -150 101t-101 150q-37 85 -37 183t37 183q37 86 101 150t150 101q85 37 183 37zM512 868q-87 0 -164 -33q-76 -33 -133 -90
t-90 -133q-33 -77 -33 -164t33 -164q33 -76 90 -133t133 -90q77 -33 164 -33t164 33q76 33 133 90t90 133q33 77 33 164t-33 164q-33 76 -90 133t-133 90q-77 33 -164 33v0zM405 412h96l-96 -253l214 326h-94l94 252z" />
    <glyph glyph-name="uniE927" unicode="&#xe927;" horiz-adv-x="1317" 
d="M127 351l1 30.5t-31 63.5t-63.5 38.5l-31.5 5.5l-1.5 -35t29.5 -67t64 -34l33 -2v0zM219 360l26 20.5t33 64.5q6 44 -15 72l-21 28l-23 -23t-30 -68t11.5 -69.5l18.5 -24.5v0zM293 212l23 24t24 69q1 44 -24 69l-25 25l-19.5 -25.5t-20.5 -71.5t20.5 -68zM442 223
q-3 45 -30 67.5l-27 22.5l-17 -27.5t-14 -73.5q3 -45 26.5 -65l23.5 -20l20.5 26t17.5 70v0zM543 54l12.5 30.5t-3.5 72.5q-16 41 -48.5 55l-32.5 14l-8.5 -31.5t7.5 -73.5q17 -43 45 -55l28 -12v0zM147 480l18 25t10 70t-31.5 67.5l-23.5 22.5l-20.5 -28.5t-12.5 -72.5
q8 -43 34 -63.5l26 -20.5v0zM177 236l-8 30t-48 52t-72 18l-32 -4l9 -34t48 -56q39 -21 71 -13.5l32 7.5v0zM267 135l-14.5 27t-58.5 40t-74 2l-30 -11l16 -31t59 -44q43 -12 72.5 2.5l29.5 14.5v0zM367 63l-22 21.5t-68 20.5q-45 -1 -70.5 -20.5l-25.5 -19.5l25 -25t69 -24
t68 24l24 23v0zM410 34q-45 -7 -68 -29.5l-23 -22.5l27.5 -21.5t71.5 -15.5q44 7 65 32.5l21 25.5l-24.5 18.5t-69.5 12.5v0zM167 451l-29 1q0 -1 6 -53t49.5 -124.5t138.5 -150.5t273 -131l8 28q-169 50 -260 122t-132.5 139t-47.5 115q-6 49 -6 54v0zM1156 350l33 2t64 34
q30 32 29 67.5l-1 35.5l-32 -6t-63 -39q-32 -32 -31 -63l1 -31v0zM1005 445q7 -44 32.5 -65l25.5 -21l18.5 24.5t11.5 69.5t-29.5 68l-22.5 23l-21.5 -28t-14.5 -71v0zM991 398l-24.5 -25t-23.5 -69q0 -44 23 -68l23 -24l21.5 22t20.5 67q-1 46 -20.5 71.5zM841 223
q-4 -45 16.5 -70.5l20.5 -25.5l23.5 19.5t27.5 65.5q3 45 -14 72.5l-17 27.5l-27 -22.5t-30 -66.5v0zM731 156q-16 -42 -4 -72.5l12 -30.5l28.5 12t44.5 55t7.5 74l-8.5 31l-32 -14t-48 -55v0zM1136 480l26 20t34 63q8 44 -13 72.5l-21 28.5l-23 -22.5t-31 -66.5
q-8 -45 10 -70l18 -25v0zM1161 317q-40 -22 -48 -52l-8 -30l32 -7.5t71 14.5q39 21 48 55l9 34l-32 4t-72 -18v0zM1088 201q-43 -13 -57.5 -40l-14.5 -27l29.5 -14.5t72.5 -2.5q42 13 58.5 44l16.5 31l-30.5 11t-74.5 -2v0zM1005 104q-45 1 -67 -20.5l-22 -21.5l23.5 -23
t68.5 -24q44 -1 69 24l25 25l-25.5 19.5t-71.5 20.5v0zM873 33q-45 6 -69.5 -12.5l-24.5 -18.5l21 -25.5t65 -31.5q44 -7 71.5 14.5l27.5 21.5l-23 22.5t-68 29.5zM1145 451l-29 -1q0 -5 -6 -53q-7 -49 -48 -116t-132 -139t-260 -122l8 -28q178 53 273 131t138 150.5
t49 124.5q7 52 7 53v0zM754 625l101 102l-147 20l-67 130l-67 -129l-147 -20l101 -102l-19 -156l132 71l133 -72l-20 156v0zM821 400l-180 98l-179 -98l26 212l-142 144l203 27l92 178l92 -179l204 -27l-142 -144l26 -211v0z" />
    <glyph glyph-name="uniE928" unicode="&#xe928;" horiz-adv-x="1755" 
d="M1224 77h-740v57h740v-57zM1256 791h230l258 -300v-414h-242v57h185v336l-227 265h-261v162h-1096v-763h97v-57h-154v877h1210v-163v0zM1279 675h102l174 -206h-276v206zM1362 -1q-44 0 -75 31t-31 75t31 75t75 31t75 -31t31 -75t-31 -75t-75 -31zM1362 -57
q67 0 114.5 47.5t47.5 114.5q0 68 -47.5 115.5t-114.5 47.5q-68 0 -115.5 -47.5t-47.5 -115.5q0 -67 47.5 -114.5t115.5 -47.5zM343 -1q-44 0 -75 31t-31 75t31 75t75 31t75 -31t31 -75t-31 -75t-75 -31zM343 -57q68 0 115.5 47.5t47.5 114.5q0 68 -47.5 115.5t-115.5 47.5
q-67 0 -114.5 -47.5t-47.5 -115.5q0 -67 47.5 -114.5t114.5 -47.5z" />
    <glyph glyph-name="uniE929" unicode="&#xe929;" horiz-adv-x="1117" 
d="M1097 535q-2 10 -22 41q-19 32 -41.5 65.5t-40.5 59.5l-18 26l50 49t55 57q5 9 14.5 26.5t-14.5 36.5q-24 20 -41 13.5t-25 -14.5q-9 -7 -52.5 -46.5l-43.5 -39.5l-28 20q-27 19 -62 43t-68 44q-32 20 -43 21q-21 1 -34 -11l-13 -12l175 -177l-86 -101l-77 22l-42 -26
l44 -21t57 -37q12 -16 25 -53.5l13 -37.5l41 21l-19 93l97 77l167 -183l18 11.5t14 32.5v0zM704 546q-12 12 -26.5 18.5l-14.5 6.5q-79 -77 -163 -153t-158 -138t-129 -101q-56 -40 -77 -43q-16 -1 -26.5 3t-14.5 12q-4 10 -6.5 18t8.5 20l-44 98q-31 -32 -46.5 -84.5
t2.5 -90.5q16 -34 47.5 -52.5t72.5 -18.5h7.5h6.5q42 4 124 61q81 58 170 133.5t170 151.5t122 115l-6.5 16.5t-18.5 27.5zM126 401q0 90 34 169t92.5 137.5t137.5 92.5t169 34q18 0 35.5 -1.5t35.5 -4.5l22 30q-23 4 -46.5 6.5t-46.5 2.5q-97 0 -182 -37
q-84 -36 -147.5 -99.5t-99.5 -147.5q-37 -85 -37 -182q0 -59 14.5 -114.5t40.5 -104.5l22 29q-22 44 -33 92t-11 98v0zM126 401q0 90 34 169t92.5 137.5t137.5 92.5t169 34q18 0 35.5 -1.5t35.5 -4.5l22 30q-23 4 -46.5 6.5t-46.5 2.5q-97 0 -182 -37q-84 -36 -147.5 -99.5
t-99.5 -147.5q-37 -85 -37 -182q0 -59 14.5 -114.5t40.5 -104.5l22 29q-22 44 -33 92t-11 98v0zM1015 493q4 -22 6.5 -45t2.5 -47q0 -96 -37 -181q-36 -84 -99.5 -147.5t-147.5 -99.5q-85 -37 -181 -37q-84 0 -158.5 27.5t-134.5 76.5l29 18q57 -43 124 -66t140 -23
q89 0 168 34t137.5 92.5t92.5 137.5t34 168q0 19 -1.5 37.5t-4.5 36.5l30 18v0zM1015 493q4 -22 6.5 -45t2.5 -47q0 -96 -37 -181q-36 -84 -99.5 -147.5t-147.5 -99.5q-85 -37 -181 -37q-84 0 -158.5 27.5t-134.5 76.5l29 18q57 -43 124 -66t140 -23q89 0 168 34t137.5 92.5
t92.5 137.5t34 168q0 19 -1.5 37.5t-4.5 36.5l30 18v0z" />
    <glyph glyph-name="uniE92A" unicode="&#xe92a;" horiz-adv-x="1536" 
d="M128 915q-34 0 -58.5 -24.5t-24.5 -58.5v-721q0 -35 24.5 -59.5t58.5 -24.5h1280q34 0 58.5 24.5t24.5 59.5v721q0 34 -24.5 58.5t-58.5 24.5h-1280zM128 960h1280q53 0 90.5 -37.5t37.5 -90.5v-721q0 -53 -37.5 -90.5t-90.5 -37.5h-1280q-53 0 -90.5 37.5t-37.5 90.5
v721q0 53 37.5 90.5t90.5 37.5zM1135 371q-18 14 -40.5 22t-47.5 8q-58 0 -98.5 -40.5t-40.5 -98.5t40.5 -99t98.5 -41q25 0 47.5 8t40.5 23q17 -15 39.5 -23t47.5 -8q58 0 98.5 41t40.5 99t-40.5 98.5t-98.5 40.5q-25 0 -47.5 -8t-39.5 -22zM244 367h384q15 0 25 -10.5
t10 -24.5v0q0 -15 -10 -25t-25 -10h-384q-14 0 -24.5 10t-10.5 25q0 14 10.5 24.5t24.5 10.5v0v0zM244 751h1083q14 0 24 -10.5t10 -24.5v0q0 -15 -10 -25t-24 -10h-1083q-14 0 -24.5 10t-10.5 25q0 14 10.5 24.5t24.5 10.5v0v0zM244 227h384q15 0 25 -10.5t10 -24.5
t-10 -24.5t-25 -10.5h-384q-14 0 -24.5 10.5t-10.5 24.5t10.5 24.5t24.5 10.5v0v0z" />
    <glyph glyph-name="uniE92B" unicode="&#xe92b;" 
d="M893 403q19 -19 45.5 -19t45.5 19q19 18 19 45t-19 45l-427 427q-18 19 -45 19t-45 -19l-427 -427q-19 -18 -19 -45t19 -45q19 -19 45.5 -19t45.5 19l381 381zM512 357l381 -381q19 -19 45.5 -19t45.5 19t19 45.5t-19 45.5l-427 426q-18 19 -45 19t-45 -19l-427 -426
q-19 -19 -19 -45.5t19 -45.5t45.5 -19t45.5 19l381 381v0z" />
    <glyph glyph-name="uniE92C" unicode="&#xe92c;" 
d="M893 493q19 19 45.5 19t45.5 -19q19 -18 19 -45t-19 -45l-427 -427q-18 -19 -45 -19t-45 19l-427 427q-19 18 -19 45t19 45q19 19 45.5 19t45.5 -19l381 -381l381 381v0zM512 539l381 381q19 19 45.5 19t45.5 -19t19 -45.5t-19 -45.5l-427 -426q-18 -19 -45 -19t-45 19
l-427 426q-19 19 -19 45.5t19 45.5t45.5 19t45.5 -19l381 -381v0z" />
    <glyph glyph-name="uniE92D" unicode="&#xe92d;" horiz-adv-x="1069" 
d="M320 -56q1 0 1.5 -0.5t0.5 -1.5q0 1 -0.5 1.5t-1.5 0.5zM315 -52q1 -1 1.5 -1t0.5 -1q0 1 -0.5 1t-1.5 1zM1067 225q2 -2 1.5 -4.5t-0.5 -5.5v-68v-68q0 -59 -41 -100.5t-100 -41.5q-63 -1 -126 -0.5t-126 0.5h-84h-84h-85h-84h-6.5h-7.5q0 1 -0.5 2t-0.5 2q0 -1 0.5 -2
t0.5 -2q-48 0 -95.5 -0.5t-95.5 0.5q-57 3 -95 44t-38 98v183v182v183v182q0 63 42 102.5t98 41.5q59 1 117.5 0.5t117.5 -0.5h2.5t1.5 -1q0 -4 -2.5 -4.5t-4.5 -2.5q-35 -20 -66 -44.5t-58 -54.5q-44 -50 -73 -107.5t-40 -123.5q-9 -58 -4 -113q4 -54 21.5 -103.5
t46.5 -95.5q30 -46 71 -87q15 -15 17 -28.5t-10 -33.5q-14 -24 -34.5 -41.5t-43.5 -31.5q-3 -2 -5.5 -3.5t-4.5 -3.5q-4 -3 -2.5 -5t4.5 -3q45 -9 88.5 -4t86.5 18q15 4 29.5 8.5t28.5 7.5q10 3 20 2.5t20 -3.5q56 -19 111 -28t110 -7t109 15t108 37q44 19 83.5 46t73.5 61
q2 2 3.5 4t4.5 2v0zM360 459h52h50q13 0 21 -6t9 -17q1 -14 -6.5 -22t-22.5 -9h-56.5h-56.5h-16t-17 1q-10 0 -19 3t-14 14q-5 10 -2.5 19.5t9.5 18.5q27 34 54 68.5t54 68.5q2 2 3.5 4t3.5 5q-2 2 -4.5 2h-4.5h-38h-38q-4 0 -8.5 0.5t-8.5 1.5q-9 2 -14 8.5t-5 15.5
q0 8 5 14.5t14 9.5q4 1 8.5 1.5t8.5 0.5h62.5h62.5q5 0 10.5 -0.5t11.5 -2.5q11 -4 16 -14t0 -21q-4 -10 -10.5 -19t-12.5 -17q-23 -30 -46 -59l-46 -58q-2 -2 -4 -4.5t-5 -6.5v0zM631 582q4 5 9 9.5t12 6.5q14 2 25 -5.5t11 -21.5v-70v-70q0 -10 -5.5 -17t-13.5 -9
q-9 -4 -18 -1.5t-15 10.5q-3 3 -5 3.5t-6 -2.5q-16 -13 -34 -15.5t-37 3.5q-31 10 -45.5 33t-17.5 53q-4 32 7.5 58t39.5 43q24 14 47.5 12.5t45.5 -20.5v0zM549 497q0 -6 2 -14t7 -15q12 -15 31 -15t31 15q9 14 9 33t-10 32q-5 7 -12 10.5t-15 4.5q-19 1 -31.5 -13
t-11.5 -38v0zM886 602q45 1 74.5 -26t30.5 -71t-23.5 -73t-66.5 -33q-46 -5 -77.5 24t-30.5 72q-2 45 24.5 75t68.5 32v0zM922 468q10 13 10 32.5t-10 32.5q-5 7 -12 10.5t-16 4.5q-19 1 -31 -12t-12 -35q0 -9 2.5 -17.5t7.5 -15.5q11 -15 30 -15t31 15v0zM772 542v-54.5
v-54.5q0 -15 -11.5 -24t-26.5 -5q-9 2 -14.5 10.5t-5.5 19.5v92.5v92.5q0 8 -0.5 16t0.5 17q0 13 8 21t20 8q14 0 22 -8t8 -22v-54.5v-54.5v0z" />
    <glyph glyph-name="uniE92E" unicode="&#xe92e;" 
d="M904 885h-236q-13 0 -22.5 9.5t-9.5 22.5q0 14 9.5 23t22.5 9h313q14 0 23 -9t9 -23v-313q0 -13 -9 -22.5t-23 -9.5q-13 0 -22.5 9.5t-9.5 22.5v236l-519 -519q-9 -9 -22.5 -9t-22.5 9t-9 22.5t9 22.5zM793 396q0 13 9.5 22.5t22.5 9.5t22.5 -9.5t9.5 -22.5v-313
q0 -56 -40 -96t-96 -40h-574q-56 0 -96 40t-40 96v574q0 56 40 96t96 40h313q13 0 22.5 -9.5t9.5 -22.5t-9.5 -22.5t-22.5 -9.5h-313q-30 0 -51 -21t-21 -51v-574q0 -30 21 -51t51 -21h574q30 0 51 21t21 51v313v0z" />
    <glyph glyph-name="uniE92F" unicode="&#xe92f;" horiz-adv-x="917" 
d="M905 817q-2 10 -8.5 17.5t-15.5 9.5l-413 115q-5 1 -9.5 1t-8.5 -1l-413 -115q-10 -2 -16.5 -9.5t-8.5 -17.5q0 -7 -7 -77t-4.5 -166.5t22.5 -201.5q20 -104 73 -180q52 -75 113 -124t113.5 -78t88.5 -41q37 -11 40 -12q2 -1 4 -1h4h4t4 1q3 1 39 12q36 12 89 41t113 78
q61 49 114 124q52 76 72 180q20 105 22.5 201.5t-3.5 166.5q-7 70 -8 77v0zM612 587q20 0 34.5 -14.5t14.5 -34.5v-244q0 -20 -14.5 -34.5t-34.5 -14.5h-296q-20 0 -34.5 14.5t-14.5 34.5v244q0 20 14.5 34.5t34.5 14.5h25v48q0 51 36 86.5t87 35.5t87 -35.5t36 -86.5v-48
h25v0zM486 397q12 6 19.5 17.5t7.5 25.5q0 20 -14.5 34.5t-34.5 14.5t-34.5 -14.5t-14.5 -34.5q0 -14 7.5 -25.5t19.5 -17.5l-27 -54h98l-27 54v0zM540 587v48q0 32 -22 54t-54 22t-54 -22t-22 -54v-48h152v0z" />
    <glyph glyph-name="uniE984" unicode="&#xe984;" 
d="M1024 576h-384l144 144q-55 54 -125 83t-147 29t-147 -29t-125 -83q-54 -55 -83 -125t-29 -147t29 -147t83 -125q55 -54 125 -83t147 -29t147 29t125 83q4 5 8.5 9.5t8.5 9.5l96 -84q-35 -40 -78 -73q-43 -32 -92 -54.5t-103 -35.5q-54 -12 -112 -12q-106 0 -199 40
q-94 40 -163.5 109.5t-109.5 163.5q-40 93 -40 199t40 199q40 94 109.5 163.5t163.5 109.5q93 40 199 40q53 0 103 -10q50 -11 96 -30.5t87 -46.5q41 -28 76 -63l150 150v-384z" />
    <glyph glyph-name="uniEA8B" unicode="&#xea8b;" 
d="M326 503v-112h185q-6 -36 -47 -88.5t-138 -52.5q-42 0 -79 16q-36 17 -63.5 44.5t-43.5 65.5q-16 37 -16 80t16 80q16 38 43.5 65.5t63.5 44.5q37 16 79 16q47 0 79 -16.5t51 -33.5l88 85q-43 40 -97.5 62.5t-120.5 22.5q-68 0 -127 -26q-59 -25 -103.5 -69.5
t-69.5 -103.5q-26 -59 -26 -127t26 -127q25 -59 69.5 -103.5t103.5 -69.5q59 -26 127 -26q70 0 128 24q58 23 99 65.5t63 100.5q23 59 23 129q0 16 -1.5 28.5t-4.5 25.5h-307v0zM1024 512h-96v96h-96v-96h-96v-96h96v-96h96v96h96v96z" />
    <glyph glyph-name="uniEA90" unicode="&#xea90;" 
d="M608 768h160v192h-160q-46 0 -87 -18q-41 -17 -71.5 -47.5t-47.5 -71.5q-18 -41 -18 -87v-96h-128v-192h128v-512h192v512h160l32 192h-192v96q0 13 9.5 22.5t22.5 9.5z" />
    <glyph glyph-name="uniEA92" unicode="&#xea92;" 
d="M512 868q103 0 134.5 -0.5t72.5 -2.5q37 -2 59 -7.5t36 -10.5q18 -7 31.5 -16t27.5 -22q13 -13 22 -27t16 -32q5 -13 10.5 -35t7.5 -60q1 -40 2 -72t1 -135q0 -102 -1 -134t-2 -72q-2 -38 -7.5 -60t-10.5 -35q-7 -18 -16 -32t-22 -27q-14 -14 -27.5 -23t-31.5 -16
q-14 -5 -36 -10.5t-59 -6.5q-41 -2 -72.5 -2.5t-134.5 -0.5q-102 0 -134 0.5t-73 2.5q-37 1 -59 6.5t-36 10.5q-17 7 -31 16t-27 23q-14 13 -23 27t-16 31q-5 14 -10.5 36t-6.5 59q-2 41 -2.5 73t-0.5 134q0 103 0.5 135t2.5 72q1 37 6.5 59t10.5 36q7 18 16 31.5t22 27.5
q14 13 27.5 22t31.5 16q14 5 36 10.5t59 7.5q41 2 72.5 2.5t134.5 0.5v0zM512 960q-104 0 -137 -0.5t-74 -2.5t-70.5 -8t-53.5 -16q-26 -10 -48 -24t-43 -35t-35 -43t-24 -48q-10 -24 -16 -53.5t-8 -70.5t-2.5 -74t-0.5 -137t0.5 -137t2.5 -74t8 -70.5t16 -53.5
q10 -26 24 -48t35 -43t43 -35t48 -24q24 -9 53.5 -15.5t70.5 -8.5t74 -2.5t137 -0.5t137 0.5t74 2.5t70.5 8.5t53.5 15.5q25 10 47 24t44 35q21 21 35 43t24 48q9 24 15.5 53.5t7.5 70.5q2 41 2.5 74t0.5 137t-0.5 137t-2.5 74q-1 41 -7.5 70.5t-15.5 53.5q-10 25 -24 47.5
t-35 43.5t-43 35t-48 24q-24 9 -53.5 15.5t-70.5 8.5t-74 2.5t-137 0.5v0v0zM512 711q-54 0 -102 -21q-48 -20 -84 -56t-56 -84q-21 -48 -21 -102t21 -102q20 -48 56 -84t84 -56q48 -21 102 -21t102 21q48 20 84 56t56 84q21 48 21 102t-21 102q-20 48 -56 84t-84 56
q-48 21 -102 21zM512 277q-71 0 -121 50t-50 121t50 121t121 50t121 -50t50 -121t-50 -121t-121 -50zM847 721q0 -25 -18 -43t-44 -18q-25 0 -43 18t-18 43q0 26 18 44t43 18q26 0 44 -18t18 -44z" />
    <glyph glyph-name="uniEACA" unicode="&#xeaca;" 
d="M384 576h177v-91h3q18 33 62.5 62t111.5 29q71 0 114 -21q43 -20 67 -56t33 -85q8 -49 8 -106v-308h-185v273q0 49 -12.5 99t-83.5 50q-72 0 -91 -44.5t-19 -99.5v-278h-185v576v0zM64 576h192v-576h-192v576zM256 736q0 -40 -28 -68t-68 -28t-68 28t-28 68t28 68t68 28
t68 -28t28 -68z" />
  </font>
</defs>
</svg>
